<svg width="222" height="191" viewBox="0 0 222 191" fill="none" xmlns="http://www.w3.org/2000/svg">
<path d="M213.924 130.128C216.146 121.711 217.329 112.876 217.329 103.768C217.329 46.4585 170.492 0 112.716 0C54.9399 0 8.10307 46.4585 8.10307 103.768C8.10307 112.876 9.2862 121.711 11.5083 130.128H19.8045C17.3972 121.758 16.1082 112.92 16.1082 103.783C16.1082 50.8505 59.3677 7.9405 112.731 7.9405C166.094 7.9405 209.354 50.8505 209.354 103.783C209.354 112.92 208.065 121.758 205.657 130.128H213.924Z" fill="#F24F32"/>
<path fill-rule="evenodd" clip-rule="evenodd" d="M201.62 112.797C201.922 109.833 202.076 106.826 202.076 103.783C202.076 54.8373 162.075 15.1591 112.731 15.1591C63.3869 15.1591 23.3857 54.8373 23.3857 103.783C23.3857 106.504 23.5093 109.197 23.7514 111.856L39.4275 104.287C39.7393 104.137 40.0292 103.945 40.2891 103.717L55.5513 90.3384C56.4742 89.5294 57.5878 88.9643 58.7892 88.6953L64.5903 87.3965C64.6686 87.3789 64.7461 87.359 64.8226 87.3368C65.0519 87.2703 65.2369 87.1077 65.3597 86.9044L71.339 77.0052C72.9276 74.3752 75.6177 73.2841 78.1898 73.4935C79.0049 73.5109 79.8283 73.6753 80.6215 73.9996C81.4849 74.3526 82.4591 74.3241 83.3 73.9211L95.631 68.0115C96.1591 67.7584 96.6217 67.3886 96.9832 66.9305L102.467 59.9811C105.65 55.9481 111.927 56.3593 114.547 60.7723L120.225 70.3348C120.915 71.4963 122.172 72.2094 123.531 72.2094H133.414C135.992 72.2094 138.379 73.5528 139.702 75.747L144.233 83.2648C144.43 83.5918 144.786 83.792 145.17 83.792H156.343C158.524 83.792 160.591 84.7558 161.983 86.4213L169.856 95.8437C170.178 96.229 170.573 96.5476 171.019 96.7811L201.62 112.797Z" fill="#F24F32"/>
<path d="M201.167 116.472L169.392 99.8413C168.54 99.3954 167.785 98.7872 167.17 98.0516L159.297 88.6293C158.568 87.7569 157.485 87.252 156.343 87.252H148.56C147.712 87.252 147.188 88.1687 147.623 88.8904L150.978 94.4571C151.252 94.9108 151.617 95.3029 152.052 95.6087L172.973 110.326C173.759 110.879 173.944 111.959 173.387 112.738C172.83 113.518 171.741 113.701 170.955 113.149L150.034 98.431C149.204 97.8473 148.506 97.0986 147.984 96.2325L136.708 77.5224C136.015 76.3731 134.764 75.6694 133.414 75.6694H126.731C125.829 75.6694 125.316 76.6913 125.859 77.4046L132.294 85.8577C132.425 86.0294 132.57 86.1898 132.728 86.3372L138.023 91.2756C138.725 91.9301 138.759 93.0249 138.1 93.7211C137.44 94.4172 136.336 94.4509 135.634 93.7965L130.339 88.858C130.037 88.5767 129.76 88.2705 129.51 87.9427L119.711 75.0692C116.726 71.1484 114.144 66.9107 111.542 62.5282C110.169 60.2166 106.881 60.0012 105.214 62.1137L99.73 69.0631C99.0398 69.9377 98.1567 70.6438 97.1485 71.127L84.8175 77.0365C84.4551 77.2102 84.2816 77.6431 84.428 78.015C84.6274 78.5218 84.776 79.0675 84.8652 79.6507L85.7751 85.6053C85.8701 86.2267 86.1296 86.8119 86.5271 87.3012C87.7755 88.838 90.0479 89.0702 91.5859 87.818L93.651 86.1367C96.8971 83.4938 101.714 84.0936 104.201 87.4504L106.62 90.7152C106.888 91.0774 107.219 91.3895 107.597 91.6372L150.097 119.482L171.196 129.964C171.347 130.04 171.515 130.079 171.685 130.079H198.078C199.454 125.68 200.493 121.135 201.167 116.472Z" fill="#F24F32"/>
<path d="M27.0156 128.869L38.1853 119.66L52.8687 107.2C53.1836 106.933 53.4529 106.617 53.6659 106.264L61.3483 93.5456C61.8418 92.7286 61.1081 91.7231 60.1716 91.9328L59.5572 92.0704C58.9279 92.2113 58.3446 92.5073 57.8612 92.931L42.5989 106.31C42.1028 106.745 41.5495 107.111 40.9541 107.398L24.1605 115.506C24.7699 120.08 25.7308 124.543 27.0156 128.869Z" fill="#F24F32"/>
<path d="M159.51 128.028C160.539 128.539 160.172 130.079 159.021 130.079H62.916C61.9301 130.079 61.4494 128.885 62.164 128.211L69.222 121.557C69.6748 121.13 70.0707 120.647 70.4001 120.121L81.9197 101.702C82.1067 101.403 82.3346 101.131 82.5969 100.894L95.6498 89.1051C97.9026 87.0703 101.532 88.3264 102.021 91.3095L103.196 98.4956C103.463 100.124 104.28 101.613 105.513 102.72L118.537 114.408C119.252 115.049 120.354 114.994 121.001 114.285C121.647 113.577 121.592 112.483 120.877 111.842L107.853 100.154C107.207 99.5744 106.779 98.7941 106.639 97.9413L106.528 97.2605C106.376 96.3291 107.413 95.6635 108.207 96.1835L148.348 122.483L159.51 128.028Z" fill="#F24F32"/>
<path d="M54.6839 130.079C54.9638 130.079 55.233 129.972 55.4359 129.781L66.8189 119.049C67.0561 118.825 67.2635 118.573 67.436 118.297L78.9556 99.8782C79.3126 99.3073 79.7477 98.7884 80.2484 98.3361L85.9778 93.1614C86.6142 92.5865 86.3633 91.5028 85.6287 91.0577C84.9534 90.6484 84.3363 90.1188 83.811 89.4721C83.0261 88.506 82.5138 87.3506 82.3264 86.1239L81.4164 80.1692C81.1254 78.2652 79.6234 77.1212 78.0116 76.9526C76.8827 76.9632 75.8 77.5532 75.2025 78.5747L70.0815 87.3302C69.5276 88.2772 68.7718 89.0771 67.8795 89.6822C67.7387 89.7777 67.6171 89.8992 67.5294 90.0444L56.6581 108.043C56.2514 108.716 55.7374 109.319 55.1361 109.83L40.4341 122.305L33.3287 128.163C32.543 128.811 33.0048 130.079 34.0265 130.079H54.6839Z" fill="#F24F32"/>
<path d="M203.434 158.331C203.434 158.468 203.486 158.536 203.588 158.536H203.64C203.674 158.536 203.794 158.433 203.999 158.228C204.239 158.022 204.564 157.766 204.975 157.458C205.385 157.15 205.865 156.842 206.412 156.533C206.96 156.225 207.628 155.969 208.415 155.763C209.202 155.524 210.024 155.404 210.88 155.404H210.982C211.701 155.404 212.403 155.507 213.087 155.712C213.806 155.883 214.559 156.225 215.347 156.739C216.168 157.218 216.853 157.988 217.401 159.049C217.948 160.111 218.291 161.411 218.427 162.952C218.496 163.534 218.53 164.424 218.53 165.622C218.53 165.759 218.53 166.101 218.53 166.649C218.53 167.162 218.513 168.103 218.479 169.473C218.479 170.842 218.479 172.588 218.479 174.71V174.813C218.479 174.984 218.496 175.155 218.53 175.326C218.564 175.463 218.581 175.583 218.581 175.686C218.616 175.754 218.684 175.84 218.787 175.942C218.89 176.011 218.958 176.062 218.992 176.096C219.061 176.131 219.181 176.182 219.352 176.25C219.557 176.285 219.694 176.302 219.762 176.302C219.865 176.302 220.053 176.319 220.327 176.353C220.635 176.387 220.858 176.422 220.995 176.456C221.508 176.524 221.765 176.85 221.765 177.431C221.765 178.116 221.491 178.458 220.943 178.458C220.841 178.458 220.601 178.424 220.225 178.356C219.848 178.321 219.317 178.27 218.633 178.202C217.982 178.167 217.281 178.15 216.528 178.15C216.083 178.15 215.638 178.15 215.193 178.15C214.748 178.184 214.354 178.219 214.012 178.253C213.704 178.287 213.413 178.321 213.139 178.356C212.865 178.39 212.642 178.424 212.471 178.458H212.215C211.735 178.458 211.496 178.116 211.496 177.431C211.496 177.055 211.598 176.815 211.804 176.713C212.009 176.61 212.557 176.49 213.447 176.353C213.755 176.285 214.012 176.233 214.217 176.199C214.559 176.131 214.782 176.028 214.885 175.891C215.021 175.72 215.09 175.412 215.09 174.967V166.803C215.09 164.235 214.85 162.336 214.371 161.103C213.858 159.939 213.087 159.135 212.06 158.69C211.034 158.211 210.058 157.971 209.134 157.971C207.799 157.971 206.601 158.382 205.539 159.203C204.478 160.025 203.879 160.744 203.742 161.36C203.674 161.634 203.64 161.873 203.64 162.079V174.659C203.64 175.549 204.033 176.045 204.821 176.148C206.361 176.387 207.2 176.576 207.337 176.713C207.542 176.884 207.645 177.175 207.645 177.585C207.645 178.202 207.422 178.51 206.977 178.51C206.943 178.51 206.823 178.493 206.618 178.458C206.447 178.458 206.207 178.441 205.899 178.407C205.591 178.373 205.249 178.321 204.872 178.253C204.495 178.219 204.05 178.184 203.537 178.15C203.058 178.15 202.579 178.15 202.099 178.15C201.62 178.15 201.141 178.15 200.662 178.15C200.182 178.184 199.754 178.219 199.378 178.253C199.036 178.287 198.728 178.321 198.454 178.356C198.18 178.39 197.957 178.407 197.786 178.407C197.615 178.441 197.512 178.458 197.478 178.458C196.896 178.458 196.605 178.15 196.605 177.534C196.605 177.055 196.708 176.764 196.913 176.661C197.153 176.524 197.735 176.387 198.659 176.25C199.275 176.148 199.652 175.96 199.789 175.686C199.96 175.412 200.045 175.001 200.045 174.453V161.925C200.045 161.309 199.96 160.898 199.789 160.693C199.618 160.453 198.916 159.871 197.684 158.947C197.478 158.741 197.375 158.57 197.375 158.433V158.382C197.375 158.211 197.495 158.057 197.735 157.92C197.974 157.749 198.71 157.338 199.943 156.687C200.901 156.174 201.706 155.746 202.356 155.404C202.561 155.267 202.733 155.198 202.869 155.198C203.28 155.198 203.486 155.455 203.486 155.969V158.022C203.486 158.057 203.469 158.125 203.434 158.228V158.331Z" fill="black"/>
<path d="M175.758 167.316C175.758 163.756 176.699 160.898 178.582 158.741C180.465 156.585 182.758 155.506 185.463 155.506C187.208 155.506 188.886 155.986 190.495 156.944C192.103 157.903 193.438 159.101 194.5 160.538C194.773 160.881 194.91 161.257 194.91 161.668V161.771C194.91 162.079 194.825 162.353 194.654 162.592C194.482 162.832 194.209 163.054 193.832 163.26C193.456 163.431 193.13 163.568 192.856 163.671C192.583 163.773 192.172 163.91 191.624 164.081C191.111 164.252 190.785 164.355 190.649 164.389C183.494 166.854 179.832 168.138 179.66 168.24C179.524 168.309 179.455 168.412 179.455 168.548C179.455 168.754 179.506 169.096 179.609 169.575C179.712 170.055 179.934 170.688 180.277 171.475C180.653 172.263 181.098 172.998 181.612 173.683C182.159 174.333 182.93 174.915 183.922 175.429C184.915 175.908 186.027 176.148 187.26 176.148C189.656 176.148 191.744 175.292 193.524 173.58C194.003 173.101 194.397 172.862 194.705 172.862C195.287 172.862 195.578 173.118 195.578 173.632C195.578 173.837 195.441 174.111 195.167 174.453C194.072 175.891 192.702 177.038 191.059 177.894C189.416 178.715 187.688 179.126 185.873 179.126C184.71 179.126 183.563 178.92 182.433 178.51C181.338 178.099 180.259 177.466 179.198 176.61C178.171 175.754 177.333 174.522 176.682 172.913C176.066 171.304 175.758 169.438 175.758 167.316ZM189.827 161.873C189.827 161.428 189.228 160.744 188.03 159.82C186.832 158.861 185.582 158.382 184.282 158.382C182.741 158.382 181.509 159.049 180.585 160.384C179.695 161.719 179.25 163.551 179.25 165.878C179.25 166.152 179.335 166.289 179.506 166.289C179.575 166.289 181.201 165.673 184.384 164.441C187.602 163.174 189.262 162.524 189.365 162.49C189.673 162.318 189.827 162.113 189.827 161.873Z" fill="black"/>
<path d="M142.332 151.296C142.332 151.159 142.366 150.748 142.434 150.064C142.503 149.379 142.571 148.438 142.64 147.24C142.742 146.042 142.794 144.758 142.794 143.389V141.438C142.794 140.479 143.153 140 143.872 140C144.42 140 144.882 140.411 145.258 141.232C145.566 142.191 146.525 142.67 148.134 142.67H171.034C171.89 142.67 172.318 142.978 172.318 143.594C172.318 143.868 171.411 145.203 169.596 147.599C168.775 148.66 168.107 149.533 167.594 150.218L159.943 159.82C156.075 164.544 153.285 168.429 151.574 171.475C151.368 171.783 151.266 172.04 151.266 172.245C151.266 172.793 151.574 173.153 152.19 173.324C152.84 173.461 154.295 173.598 156.554 173.735C158.232 173.837 159.943 173.889 161.689 173.889H162.819C165.112 173.889 166.824 173.717 167.953 173.375C169.083 172.999 169.956 172.109 170.572 170.705C170.777 170.157 171.017 169.165 171.291 167.727C171.565 166.255 171.753 165.416 171.856 165.211C172.095 164.869 172.421 164.698 172.831 164.698C173.105 164.698 173.379 164.834 173.653 165.108C173.961 165.348 174.115 165.707 174.115 166.187V166.238C174.115 166.888 174.081 167.487 174.012 168.035C173.944 168.583 173.858 169.199 173.756 169.884C173.653 170.568 173.567 171.167 173.499 171.681C173.465 172.194 173.413 172.879 173.345 173.735C173.311 174.59 173.259 175.206 173.191 175.583C173.156 175.925 173.071 176.336 172.934 176.815C172.831 177.26 172.66 177.586 172.421 177.791C172.181 177.996 171.856 178.116 171.445 178.15H143.821C142.828 178.15 142.332 177.774 142.332 177.021C142.332 176.747 142.486 176.422 142.794 176.045C149.777 166.187 157.171 156.944 164.975 148.318C165.455 147.77 165.694 147.394 165.694 147.188C165.694 146.812 165.455 146.624 164.975 146.624H147.98C147.672 146.624 147.415 146.641 147.209 146.675C147.004 146.675 146.799 146.709 146.593 146.778C146.422 146.846 146.268 146.897 146.131 146.932C146.028 146.966 145.909 147.086 145.772 147.291C145.669 147.497 145.583 147.651 145.515 147.753C145.447 147.822 145.361 148.027 145.258 148.369C145.156 148.712 145.087 148.986 145.053 149.191C145.019 149.362 144.933 149.704 144.796 150.218C144.659 150.731 144.557 151.142 144.488 151.45C144.283 152.203 143.923 152.58 143.41 152.58C143.136 152.58 142.879 152.477 142.64 152.272C142.434 152.066 142.332 151.741 142.332 151.296Z" fill="black"/>
<path d="M121.229 167.316C121.229 163.756 122.17 160.898 124.053 158.741C125.936 156.585 128.229 155.506 130.934 155.506C132.679 155.506 134.357 155.986 135.965 156.944C137.574 157.903 138.909 159.101 139.97 160.538C140.244 160.881 140.381 161.257 140.381 161.668V161.771C140.381 162.079 140.296 162.353 140.125 162.592C139.953 162.832 139.68 163.054 139.303 163.26C138.926 163.431 138.601 163.568 138.327 163.671C138.054 163.773 137.643 163.91 137.095 164.081C136.582 164.252 136.256 164.355 136.119 164.389C128.965 166.854 125.303 168.138 125.131 168.24C124.994 168.309 124.926 168.412 124.926 168.548C124.926 168.754 124.977 169.096 125.08 169.575C125.183 170.055 125.405 170.688 125.748 171.475C126.124 172.263 126.569 172.998 127.083 173.683C127.63 174.333 128.4 174.915 129.393 175.429C130.386 175.908 131.498 176.148 132.731 176.148C135.127 176.148 137.215 175.292 138.995 173.58C139.474 173.101 139.868 172.862 140.176 172.862C140.758 172.862 141.049 173.118 141.049 173.632C141.049 173.837 140.912 174.111 140.638 174.453C139.543 175.891 138.173 177.038 136.53 177.894C134.887 178.715 133.159 179.126 131.344 179.126C130.18 179.126 129.034 178.92 127.904 178.51C126.809 178.099 125.73 177.466 124.669 176.61C123.642 175.754 122.804 174.522 122.153 172.913C121.537 171.304 121.229 169.438 121.229 167.316ZM135.298 161.873C135.298 161.428 134.699 160.744 133.501 159.82C132.303 158.861 131.053 158.382 129.753 158.382C128.212 158.382 126.98 159.049 126.056 160.384C125.166 161.719 124.721 163.551 124.721 165.878C124.721 166.152 124.806 166.289 124.977 166.289C125.046 166.289 126.672 165.673 129.855 164.441C133.073 163.174 134.733 162.524 134.836 162.49C135.144 162.318 135.298 162.113 135.298 161.873Z" fill="black"/>
<path d="M101.255 158.331C101.255 158.468 101.306 158.536 101.409 158.536H101.46C101.494 158.536 101.614 158.433 101.819 158.228C102.059 158.022 102.384 157.766 102.795 157.458C103.206 157.15 103.685 156.842 104.233 156.533C104.78 156.225 105.448 155.969 106.235 155.763C107.022 155.524 107.844 155.404 108.7 155.404H108.802C109.521 155.404 110.223 155.507 110.908 155.712C111.627 155.883 112.38 156.225 113.167 156.739C113.988 157.218 114.673 157.988 115.221 159.049C115.768 160.111 116.111 161.411 116.248 162.952C116.316 163.534 116.35 164.424 116.35 165.622C116.35 165.759 116.35 166.101 116.35 166.649C116.35 167.162 116.333 168.103 116.299 169.473C116.299 170.842 116.299 172.588 116.299 174.71V174.813C116.299 174.984 116.316 175.155 116.35 175.326C116.385 175.463 116.402 175.583 116.402 175.686C116.436 175.754 116.504 175.84 116.607 175.942C116.71 176.011 116.778 176.062 116.812 176.096C116.881 176.131 117.001 176.182 117.172 176.25C117.377 176.285 117.514 176.302 117.583 176.302C117.685 176.302 117.874 176.319 118.147 176.353C118.456 176.387 118.678 176.422 118.815 176.456C119.328 176.524 119.585 176.85 119.585 177.431C119.585 178.116 119.311 178.458 118.764 178.458C118.661 178.458 118.421 178.424 118.045 178.356C117.668 178.321 117.138 178.27 116.453 178.202C115.803 178.167 115.101 178.15 114.348 178.15C113.903 178.15 113.458 178.15 113.013 178.15C112.568 178.184 112.174 178.219 111.832 178.253C111.524 178.287 111.233 178.321 110.959 178.356C110.685 178.39 110.463 178.424 110.292 178.458H110.035C109.556 178.458 109.316 178.116 109.316 177.431C109.316 177.055 109.419 176.815 109.624 176.713C109.829 176.61 110.377 176.49 111.267 176.353C111.575 176.285 111.832 176.233 112.037 176.199C112.38 176.131 112.602 176.028 112.705 175.891C112.842 175.72 112.91 175.412 112.91 174.967V166.803C112.91 164.235 112.671 162.336 112.191 161.103C111.678 159.939 110.908 159.135 109.881 158.69C108.854 158.211 107.878 157.971 106.954 157.971C105.619 157.971 104.421 158.382 103.36 159.203C102.299 160.025 101.7 160.744 101.563 161.36C101.494 161.634 101.46 161.873 101.46 162.079V174.659C101.46 175.549 101.854 176.045 102.641 176.148C104.181 176.387 105.02 176.576 105.157 176.713C105.362 176.884 105.465 177.175 105.465 177.585C105.465 178.202 105.242 178.51 104.797 178.51C104.763 178.51 104.643 178.493 104.438 178.458C104.267 178.458 104.027 178.441 103.719 178.407C103.411 178.373 103.069 178.321 102.692 178.253C102.316 178.219 101.871 178.184 101.357 178.15C100.878 178.15 100.399 178.15 99.9195 178.15C99.4403 178.15 98.9611 178.15 98.4818 178.15C98.0026 178.184 97.5747 178.219 97.1982 178.253C96.8559 178.287 96.5478 178.321 96.2739 178.356C96.0001 178.39 95.7776 178.407 95.6064 178.407C95.4353 178.441 95.3326 178.458 95.2984 178.458C94.7164 178.458 94.4255 178.15 94.4255 177.534C94.4255 177.055 94.5282 176.764 94.7336 176.661C94.9732 176.524 95.5551 176.387 96.4793 176.25C97.0955 176.148 97.472 175.96 97.6089 175.686C97.7801 175.412 97.8657 175.001 97.8657 174.453V161.925C97.8657 161.309 97.7801 160.898 97.6089 160.693C97.4378 160.453 96.7361 159.871 95.5038 158.947C95.2984 158.741 95.1957 158.57 95.1957 158.433V158.382C95.1957 158.211 95.3155 158.057 95.5551 157.92C95.7947 157.749 96.5307 157.338 97.763 156.687C98.7215 156.174 99.5259 155.746 100.176 155.404C100.382 155.267 100.553 155.198 100.69 155.198C101.101 155.198 101.306 155.455 101.306 155.969V158.022C101.306 158.057 101.289 158.125 101.255 158.228V158.331Z" fill="black"/>
<path d="M86.0561 171.783C86.0561 170.003 86.0561 168.343 86.0561 166.803C86.0561 165.262 86.0561 164.064 86.0561 163.209C86.0903 162.319 86.1074 161.788 86.1074 161.617C86.1074 161.24 85.9705 160.984 85.6967 160.847C85.4571 160.675 84.413 160.213 82.5645 159.46C82.1195 159.289 81.897 159.067 81.897 158.793C81.897 158.69 81.9142 158.587 81.9484 158.485C82.0168 158.382 82.1024 158.296 82.2051 158.228C82.342 158.159 82.4619 158.108 82.5645 158.074C82.6672 158.005 82.8042 157.937 82.9753 157.869C83.1465 157.8 83.2663 157.749 83.3347 157.714C87.1686 155.866 89.1026 154.942 89.1369 154.942H89.1882C89.6675 154.942 89.9071 155.233 89.9071 155.815L89.8557 157.509C89.7873 158.639 89.7188 160.162 89.6503 162.079C89.6161 163.962 89.599 165.844 89.599 167.727V169.473C89.599 172.725 89.6503 174.642 89.753 175.224C89.8557 175.806 90.198 176.131 90.78 176.199C91.8069 176.336 92.4573 176.456 92.7311 176.559C93.005 176.661 93.1419 176.918 93.1419 177.329C93.1419 178.082 92.9365 178.458 92.5257 178.458C92.4915 178.458 92.3888 178.441 92.2177 178.407C92.0465 178.407 91.8069 178.39 91.4988 178.356C91.1907 178.321 90.8484 178.287 90.4719 178.253C90.0953 178.219 89.6503 178.185 89.1369 178.15C88.6576 178.15 88.1784 178.15 87.6992 178.15C87.2199 178.15 86.7236 178.15 86.2101 178.15C85.6967 178.185 85.2517 178.219 84.8751 178.253C84.5328 178.287 84.2076 178.321 83.8996 178.356C83.5915 178.39 83.3519 178.407 83.1807 178.407C83.0095 178.441 82.9069 178.458 82.8726 178.458C82.3249 178.458 82.0511 178.167 82.0511 177.586C82.0511 177.004 82.1538 176.661 82.3592 176.559C82.5988 176.456 83.369 176.319 84.6697 176.148C85.2859 176.045 85.6624 175.857 85.7994 175.583C85.9705 175.275 86.0561 174.83 86.0561 174.248V171.783ZM86.5696 145.648C86.5696 144.963 86.8263 144.382 87.3398 143.902C87.8532 143.423 88.4523 143.183 89.1369 143.183C89.8215 143.183 90.4034 143.423 90.8827 143.902C91.3961 144.382 91.6529 144.946 91.6529 145.597C91.6529 146.316 91.3961 146.915 90.8827 147.394C90.4034 147.873 89.8044 148.113 89.0855 148.113C88.3667 148.113 87.7676 147.89 87.2884 147.445C86.8092 146.966 86.5696 146.367 86.5696 145.648Z" fill="black"/>
<path d="M68.3418 176.713C70.5668 176.713 72.5009 175.874 74.144 174.197C75.8213 172.519 76.6599 170.414 76.6599 167.881C76.6599 165.382 75.8213 163.209 74.144 161.36C72.5009 159.512 70.6182 158.587 68.4959 158.587C67.1951 158.587 66.0312 158.964 65.0043 159.717C64.0116 160.402 63.5153 161.48 63.5153 162.952V174.248C63.5153 174.933 63.9603 175.48 64.8503 175.891C65.9457 176.439 67.1095 176.713 68.3418 176.713ZM70.2416 155.507C73.117 155.507 75.479 156.619 77.3274 158.844C79.2101 161.069 80.1515 163.739 80.1515 166.854C80.1515 170.311 78.9876 173.118 76.6599 175.275C74.3322 177.432 71.337 178.51 67.6743 178.51C67.332 178.51 66.9897 178.493 66.6474 178.458C66.3051 178.458 65.997 178.441 65.7232 178.407C65.4493 178.373 65.2097 178.339 65.0043 178.304C64.7989 178.27 64.6278 178.253 64.4909 178.253L64.2855 178.202C64.0458 178.202 63.926 178.39 63.926 178.767V186.16C63.926 186.982 64.3197 187.427 65.107 187.495C65.4493 187.53 65.843 187.564 66.288 187.598C66.7672 187.632 67.1095 187.649 67.3149 187.649C67.5203 187.684 67.7599 187.718 68.0337 187.752C68.3076 187.786 68.4959 187.838 68.5986 187.906C68.7355 187.975 68.8553 188.06 68.958 188.163C69.0949 188.266 69.1805 188.385 69.2147 188.522C69.2489 188.693 69.2661 188.899 69.2661 189.138C69.2661 189.652 69.0607 189.909 68.6499 189.909C68.5814 189.909 68.3247 189.892 67.8797 189.857C67.4689 189.823 66.887 189.789 66.1339 189.755C65.3809 189.72 64.5764 189.703 63.7207 189.703C62.591 189.703 61.4614 189.738 60.3318 189.806C59.2364 189.874 58.3635 189.943 57.7131 190.011L56.7375 190.114C56.1556 190.114 55.8647 189.772 55.8647 189.087C55.8647 188.984 55.8647 188.882 55.8647 188.779C55.8989 188.711 55.9331 188.642 55.9674 188.574C56.0358 188.539 56.0872 188.488 56.1214 188.42C56.1556 188.385 56.2241 188.334 56.3268 188.266C56.4637 188.231 56.5664 188.197 56.6349 188.163C56.7375 188.163 56.8745 188.129 57.0456 188.06C57.251 188.026 57.4222 187.992 57.5591 187.958C57.7302 187.958 57.9527 187.923 58.2266 187.855C58.5004 187.786 58.7401 187.735 58.9454 187.701C59.6985 187.564 60.0751 187.085 60.0751 186.263V161.874C60.0751 161.326 59.8526 160.966 59.4076 160.795C58.9283 160.59 58.3464 160.333 57.6618 160.025C56.7718 159.649 56.2412 159.409 56.07 159.306C55.9331 159.204 55.8647 159.084 55.8647 158.947V158.895C55.8647 158.759 56.6349 158.245 58.1752 157.355C59.4076 156.636 60.5201 155.986 61.5128 155.404C61.6155 155.335 61.7181 155.284 61.8208 155.25C61.9235 155.181 61.992 155.13 62.0262 155.096C62.0947 155.027 62.146 154.993 62.1803 154.993C62.2487 154.959 62.3172 154.942 62.3856 154.942C62.6595 154.942 62.7964 155.147 62.7964 155.558V158.639C62.7964 158.844 62.8649 158.947 63.0018 158.947L63.6693 158.228C64.1143 157.749 64.816 157.235 65.7745 156.688C66.733 156.106 67.8112 155.729 69.0093 155.558C69.2832 155.524 69.694 155.507 70.2416 155.507Z" fill="black"/>
<path d="M54.633 177.431C54.633 178.116 54.4276 178.458 54.0168 178.458C53.9826 178.458 53.8628 178.441 53.6574 178.407C53.4862 178.407 53.2466 178.39 52.9385 178.356C52.6304 178.321 52.2881 178.287 51.9116 178.253C51.5351 178.219 51.0901 178.185 50.5766 178.15C50.0631 178.15 49.5668 178.15 49.0875 178.15C48.6083 178.15 48.1291 178.15 47.6498 178.15C47.1706 178.185 46.7427 178.202 46.3662 178.202C45.9897 178.236 45.6473 178.27 45.3393 178.304C45.0654 178.339 44.8429 178.356 44.6718 178.356C44.5006 178.39 44.3979 178.407 44.3637 178.407C43.8502 178.407 43.5935 178.099 43.5935 177.483V177.329C43.5935 176.884 43.6962 176.61 43.9016 176.507C44.1412 176.37 44.7573 176.25 45.75 176.148C46.3662 176.079 46.7598 175.891 46.931 175.583C47.1364 175.241 47.2391 174.761 47.2391 174.145V147.394C47.2391 147.291 47.222 147.206 47.1877 147.137C47.1877 147.034 47.1706 146.949 47.1364 146.88C47.1022 146.812 47.0679 146.761 47.0337 146.726C47.0337 146.658 46.9823 146.607 46.8797 146.572C46.8112 146.504 46.7427 146.452 46.6743 146.418C46.64 146.384 46.5373 146.333 46.3662 146.264C46.2293 146.162 46.1266 146.093 46.0581 146.059C45.7158 145.853 45.3393 145.648 44.9285 145.443C44.552 145.203 44.2781 145.032 44.1069 144.929C43.97 144.827 43.816 144.724 43.6448 144.621C43.4737 144.484 43.3539 144.381 43.2854 144.313C43.2512 144.21 43.2341 144.108 43.2341 144.005V143.954C43.2341 143.782 43.8844 143.355 45.1852 142.67C46.7941 141.883 48.3002 141.112 49.7037 140.359C49.9091 140.222 50.1316 140.154 50.3712 140.154C50.8504 140.154 51.0901 140.479 51.0901 141.13V174.402C51.0901 174.607 51.0901 174.779 51.0901 174.915C51.1243 175.052 51.1585 175.189 51.1927 175.326C51.227 175.429 51.2612 175.515 51.2954 175.583C51.3297 175.651 51.3981 175.72 51.5008 175.788C51.6378 175.857 51.7233 175.908 51.7576 175.942C51.826 175.977 51.9458 176.028 52.117 176.096C52.3224 176.131 52.4593 176.165 52.5278 176.199C52.6304 176.199 52.8187 176.216 53.0926 176.25C53.4006 176.285 53.6231 176.319 53.7601 176.353C54.342 176.456 54.633 176.815 54.633 177.431Z" fill="black"/>
<path d="M6.72638 178.15C6.14445 178.15 5.56252 178.15 4.9806 178.15C4.39867 178.185 3.88521 178.219 3.44021 178.253C2.99521 178.287 2.60155 178.321 2.25924 178.356C1.91693 178.39 1.64308 178.407 1.4377 178.407C1.23231 178.441 1.1125 178.458 1.07827 178.458C0.359425 178.458 0 178.099 0 177.38C0 177.209 0 177.072 0 176.969C0.0342309 176.832 0.0684618 176.713 0.102693 176.61C0.171155 176.507 0.222501 176.422 0.256732 176.353C0.290963 176.285 0.359425 176.233 0.462117 176.199C0.599041 176.131 0.684618 176.096 0.718849 176.096C0.75308 176.062 0.855773 176.028 1.02693 175.994C1.23231 175.96 1.35212 175.942 1.38635 175.942C1.45481 175.908 1.60885 175.874 1.84847 175.84C2.12232 175.805 2.29347 175.788 2.36193 175.788C3.18348 175.686 3.79963 175.48 4.2104 175.172C4.62117 174.83 5.01483 174.197 5.39137 173.272C7.856 167.761 10.526 162.147 13.4014 156.431C18.4676 146.846 21.0862 141.934 21.2574 141.694C21.3259 141.626 21.4286 141.54 21.5655 141.438C21.942 141.164 22.3699 141.027 22.8491 141.027C23.7734 141.027 24.5093 141.694 25.057 143.029L32.6049 160.487C36.4388 169.764 38.39 174.453 38.4584 174.556C38.835 175.104 39.3313 175.463 39.9475 175.634C40.5979 175.805 41.1456 175.925 41.5906 175.994C42.0698 176.062 42.3436 176.268 42.4121 176.61C42.4806 176.884 42.5148 177.123 42.5148 177.329C42.5148 178.082 42.1554 178.458 41.4365 178.458L40.5636 178.356C39.9817 178.321 39.1944 178.27 38.2017 178.202C37.2432 178.167 36.3019 178.15 35.3777 178.15C34.248 178.15 33.2211 178.167 32.2969 178.202C31.3726 178.27 30.6367 178.321 30.089 178.356C29.5755 178.424 29.2674 178.458 29.1647 178.458C28.4459 178.458 28.0865 178.167 28.0865 177.585C28.0865 177.414 28.0865 177.26 28.0865 177.123C28.1207 176.986 28.1549 176.867 28.1892 176.764C28.2576 176.627 28.2919 176.524 28.2919 176.456C28.3261 176.387 28.4117 176.319 28.5486 176.25C28.6855 176.182 28.7882 176.148 28.8567 176.148C28.9251 176.114 29.062 176.079 29.2674 176.045C29.4728 176.011 29.6269 175.994 29.7296 175.994C29.8665 175.96 30.089 175.925 30.3971 175.891C30.7051 175.857 30.9619 175.823 31.1672 175.788C31.8861 175.651 32.2455 175.309 32.2455 174.761C32.2455 174.248 31.8176 172.69 30.9619 170.089C30.1403 167.453 29.2503 165.057 28.2919 162.9C28.1549 162.558 27.8468 162.387 27.3676 162.387H14.9931C14.4454 162.387 14.0518 162.592 13.8122 163.003C12.6141 165.228 11.5358 167.539 10.5774 169.935C9.65312 172.297 9.191 173.769 9.191 174.351C9.191 174.967 9.37927 175.378 9.75581 175.583C10.1666 175.754 10.8683 175.891 11.861 175.994C12.1691 175.994 12.3916 176.011 12.5285 176.045C13.2816 176.114 13.6581 176.541 13.6581 177.329C13.6581 178.082 13.2816 178.458 12.5285 178.458C12.4258 178.458 12.1177 178.424 11.6043 178.356C11.125 178.321 10.4404 178.27 9.55043 178.202C8.69465 178.167 7.7533 178.15 6.72638 178.15ZM26.2893 159.666C26.5974 159.666 26.7515 159.529 26.7515 159.255C26.7515 158.981 26.0668 157.269 24.6976 154.12C23.3626 150.971 22.5068 149.071 22.1303 148.421C21.9934 148.181 21.8051 148.061 21.5655 148.061C21.2574 148.061 20.9322 148.369 20.5899 148.986C16.9956 155.763 15.1985 159.238 15.1985 159.409C15.1985 159.58 15.3012 159.666 15.5066 159.666H26.2893Z" fill="black"/>
</svg>
