<svg width="16" height="16" viewBox="0 0 16 16" fill="none" xmlns="http://www.w3.org/2000/svg">
<path d="M13.3965 9.49686C12.5989 7.21799 10.5396 5.59521 8.12501 5.59521C5.01836 5.59521 2.49992 8.2815 2.49992 11.5952C2.49992 11.7062 2.50275 11.8165 2.50833 11.9261L3.40388 10.3537C3.67152 9.88382 4.12474 9.68888 4.55808 9.72629C4.69541 9.72941 4.83414 9.75878 4.96777 9.81672C5.11324 9.8798 5.27737 9.8747 5.41905 9.80269L7.49655 8.74684C7.58553 8.70161 7.66346 8.63554 7.72437 8.55368L8.64829 7.31204C9.18447 6.59147 10.2421 6.66493 10.6835 7.4534L11.6401 9.16194C11.7563 9.36947 11.9682 9.49686 12.1971 9.49686H13.3965Z" fill="black"/>
<path d="M13.5777 10.1151H12.7361C12.5843 10.1151 12.4979 10.2976 12.5894 10.4251L13.6735 11.9354C13.6928 11.9623 13.7139 11.9876 13.7368 12.0112C13.7456 11.8738 13.7501 11.735 13.7501 11.5952C13.7501 11.0844 13.6903 10.5885 13.5777 10.1151Z" fill="black"/>
<path d="M13.6429 12.767L13.344 12.4715C13.2932 12.4212 13.2465 12.3665 13.2045 12.3079L11.5535 10.0078C11.0506 9.30731 10.6155 8.55015 10.1771 7.76713C9.94589 7.35412 9.39191 7.31564 9.11106 7.69308L8.18714 8.93473C8.07086 9.09099 7.92207 9.21714 7.75221 9.30347L5.67471 10.3593C5.61365 10.3904 5.58443 10.4677 5.60909 10.5342C5.64269 10.6247 5.66772 10.7222 5.68274 10.8264L5.83605 11.8903C5.85205 12.0013 5.89576 12.1059 5.96274 12.1933C6.17307 12.4679 6.55591 12.5094 6.81503 12.2857L7.16296 11.9853C7.70986 11.5131 8.52143 11.6202 8.94042 12.22L9.34794 12.8033C9.39314 12.868 9.44888 12.9238 9.51257 12.968L9.69562 13.0952H13.5729C13.599 12.987 13.6224 12.8776 13.6429 12.767Z" fill="black"/>
<path d="M8.6017 13.0952H6.8946L7.49971 12.5156C7.87926 12.1521 8.49082 12.3765 8.57305 12.9095L8.6017 13.0952Z" fill="black"/>
<path d="M5.93139 13.0952H2.67713C2.66208 13.0328 2.64795 12.9701 2.63475 12.9069L2.76204 12.6834C2.77682 12.6575 2.7973 12.6358 2.82103 12.6187C2.97136 12.5106 3.09869 12.3677 3.19202 12.1985L4.0548 10.6342C4.15546 10.4516 4.33787 10.3462 4.52806 10.3443C4.79961 10.3745 5.05267 10.5789 5.10169 10.919L5.255 11.983C5.28659 12.2021 5.3729 12.4086 5.50513 12.5812C5.59363 12.6967 5.6976 12.7914 5.81138 12.8645C5.88813 12.9138 5.93355 13.007 5.93139 13.0952Z" fill="black"/>
<path d="M14.7412 13.0952C14.9098 12.4992 15 11.8702 15 11.2202C15 7.42326 11.922 4.34521 8.125 4.34521C4.32804 4.34521 1.25 7.42326 1.25 11.2202C1.25 11.8702 1.34021 12.4992 1.50879 13.0952H0.474585C0.327815 12.4943 0.25 11.8663 0.25 11.2202C0.25 6.87097 3.77576 3.34521 8.125 3.34521C12.4742 3.34521 16 6.87097 16 11.2202C16 11.8663 15.9222 12.4943 15.7754 13.0952H14.7412Z" fill="black"/>
</svg>
