<svg width="824" height="824" viewBox="0 0 824 824" fill="none" xmlns="http://www.w3.org/2000/svg">
<rect width="824" height="824" fill="url(#paint0_linear_1_210)"/>
<path d="M625.339 455.774C597.227 358.721 512.446 288.206 412.224 288.206C289.054 288.206 189.206 394.709 189.206 526.088C189.206 534.891 189.654 543.582 190.528 552.137L199.293 550.033C199.76 549.921 200.223 549.794 200.68 549.652C202.048 549.226 203.153 548.185 203.886 546.885L239.577 483.548C249.059 466.72 265.116 459.739 280.469 461.079C285.335 461.191 290.25 462.243 294.984 464.318C300.138 466.576 305.953 466.394 310.973 463.815L384.577 426.005C387.729 424.385 390.49 422.019 392.648 419.088L425.382 374.624C444.378 348.821 481.848 351.451 497.488 379.686L531.38 440.87C535.496 448.301 543.003 452.863 551.115 452.863H610.108C615.389 452.863 620.536 453.876 625.339 455.774Z" fill="#F0E6E0"/>
<path d="M633.066 492.727L629.766 486.857C625.631 479.503 618.166 475.001 610.108 475.001H570.212C564.833 475.001 561.77 481.539 565.012 486.104L603.421 540.188C604.201 541.287 605.067 542.313 606.011 543.256L631.643 568.879C634.007 554.998 635.242 540.696 635.242 526.088C635.242 514.765 634.5 503.627 633.066 492.727Z" fill="#F0E6E0"/>
<path d="M617.932 585.558L591.749 559.385C589.948 557.585 588.294 555.625 586.804 553.528L528.31 471.161C510.495 446.075 495.08 418.961 479.548 390.921C471.355 376.131 451.728 374.753 441.778 388.269L409.044 432.733C404.924 438.329 399.653 442.846 393.635 445.938L320.03 483.748C317.867 484.86 316.832 487.629 317.705 490.009C318.896 493.251 319.783 496.743 320.315 500.474L325.747 538.573C326.313 542.549 327.862 546.293 330.235 549.424C337.687 559.257 351.251 560.742 360.431 552.73L372.758 541.973C392.134 525.064 420.888 528.901 435.732 550.378L450.17 571.267C451.771 573.584 453.746 575.582 456.003 577.166L467.952 585.558H617.932Z" fill="#F0E6E0"/>
<path d="M424.317 585.558H359.286L384.689 560.965C398.136 547.947 419.803 555.983 422.716 575.07L424.317 585.558Z" fill="#F0E6E0"/>
<path d="M328.044 585.558H206.365L216.837 566.975C217.36 566.047 218.086 565.269 218.927 564.658C224.253 560.786 228.764 555.668 232.07 549.609L262.638 493.59C266.205 487.054 272.667 483.279 279.406 483.211C289.026 484.29 297.992 491.61 299.729 503.792L305.161 541.891C306.28 549.74 309.338 557.132 314.022 563.314C317.158 567.451 320.841 570.84 324.873 573.459C328.762 575.985 330.38 581.726 328.044 585.558Z" fill="#F0E6E0"/>
<path d="M653.861 585.558C661.082 562.055 664.97 537.091 664.97 511.22C664.97 371.63 551.81 258.47 412.22 258.47C272.63 258.47 159.47 371.63 159.47 511.22C159.47 537.091 163.358 562.055 170.58 585.558H108.904C103.085 561.733 100 536.837 100 511.22C100 338.786 239.786 199 412.22 199C584.654 199 724.44 338.786 724.44 511.22C724.44 536.837 721.355 561.733 715.536 585.558H653.861Z" fill="#F0E6E0"/>
<defs>
<linearGradient id="paint0_linear_1_210" x1="631.5" y1="272" x2="231" y2="763.5" gradientUnits="userSpaceOnUse">
<stop stop-color="#F24F32"/>
<stop offset="1" stop-color="#C9290D"/>
</linearGradient>
</defs>
</svg>
