<svg width="824" height="824" viewBox="0 0 824 824" fill="none" xmlns="http://www.w3.org/2000/svg">
<rect width="824" height="824" fill="#F0E6E0"/>
<path d="M621.223 442.894C589.599 352.544 507.955 288.206 412.224 288.206C289.054 288.206 189.206 394.709 189.206 526.088C189.206 530.487 189.318 534.859 189.539 539.2L225.042 476.866C235.653 458.236 253.622 450.507 270.802 451.99C276.247 452.114 281.747 453.278 287.045 455.575C292.813 458.076 299.32 457.874 304.937 455.019L387.304 413.158C390.832 411.365 393.922 408.745 396.336 405.5L432.967 356.272C454.225 327.704 496.155 330.616 513.658 361.877L551.584 429.615C556.19 437.843 564.591 442.894 573.668 442.894H621.223Z" fill="#F24F32"/>
<path d="M628.404 467.403H595.038C589.019 467.403 585.592 474.642 589.219 479.696L632.201 539.575C632.967 540.642 633.807 541.647 634.714 542.583C635.064 537.133 635.242 531.632 635.242 526.088C635.242 505.835 632.869 486.174 628.404 467.403Z" fill="#F24F32"/>
<path d="M630.99 572.549L619.139 560.828C617.124 558.836 615.273 556.666 613.606 554.344L548.148 463.152C528.212 435.379 510.962 405.359 493.581 374.315C484.413 357.94 462.449 356.415 451.314 371.379L414.684 420.607C410.074 426.802 404.175 431.804 397.44 435.226L315.074 477.088C312.653 478.318 311.494 481.385 312.472 484.019C313.804 487.609 314.797 491.475 315.392 495.606L321.47 537.787C322.104 542.188 323.838 546.334 326.493 549.8C334.832 560.687 350.01 562.331 360.284 553.461L374.078 541.551C395.761 522.83 427.937 527.079 444.549 550.857L460.706 573.984C462.498 576.549 464.708 578.761 467.233 580.515L474.491 585.558H628.216C629.251 581.267 630.177 576.93 630.99 572.549Z" fill="#F24F32"/>
<path d="M431.12 585.558H363.438L387.429 562.578C402.477 548.165 426.724 557.062 429.984 578.194L431.12 585.558Z" fill="#F24F32"/>
<path d="M325.25 585.558H196.232C195.635 583.084 195.074 580.594 194.55 578.089L199.595 569.232C200.181 568.204 200.993 567.343 201.934 566.666C207.894 562.38 212.942 556.714 216.642 550.005L250.849 487.984C254.84 480.748 262.072 476.569 269.612 476.493C280.378 477.688 290.411 485.792 292.355 499.279L298.433 541.46C299.686 550.15 303.108 558.335 308.35 565.178C311.859 569.759 315.981 573.511 320.492 576.41C323.535 578.366 325.336 582.061 325.25 585.558Z" fill="#F24F32"/>
<path d="M653.861 585.558C661.082 562.055 664.97 537.091 664.97 511.22C664.97 371.63 551.81 258.47 412.22 258.47C272.63 258.47 159.47 371.63 159.47 511.22C159.47 537.091 163.358 562.055 170.58 585.558H108.904C103.085 561.733 100 536.837 100 511.22C100 338.786 239.786 199 412.22 199C584.654 199 724.44 338.786 724.44 511.22C724.44 536.837 721.355 561.733 715.536 585.558H653.861Z" fill="#F24F32"/>
</svg>
