<svg width="16" height="16" viewBox="0 0 16 16" fill="none" xmlns="http://www.w3.org/2000/svg">
<path d="M13.3553 9.24928C12.545 6.93425 10.453 5.28571 8.0001 5.28571C4.84413 5.28571 2.28571 8.01465 2.28571 11.381C2.28571 11.4937 2.28858 11.6057 2.29425 11.7169L3.20394 10.1198C3.47584 9.64239 3.93624 9.44435 4.37646 9.48236C4.51597 9.48552 4.65691 9.51536 4.79266 9.57422C4.94044 9.6383 5.10718 9.63311 5.2511 9.55996L7.36158 8.48735C7.45197 8.44141 7.53114 8.37429 7.59302 8.29113L8.5316 7.02978C9.07629 6.29777 10.1507 6.37239 10.5991 7.17338L11.5709 8.90904C11.6889 9.11986 11.9042 9.24928 12.1368 9.24928H13.3553Z" fill="black"/>
<path d="M13.5393 9.87729H12.6843C12.5301 9.87729 12.4423 10.0628 12.5352 10.1923L13.6366 11.7265C13.6562 11.7539 13.6777 11.7796 13.701 11.8036C13.7099 11.664 13.7145 11.523 13.7145 11.381C13.7145 10.862 13.6537 10.3583 13.5393 9.87729Z" fill="black"/>
<path d="M13.6055 12.5714L13.3019 12.2711C13.2502 12.2201 13.2028 12.1645 13.1601 12.105L11.4829 9.76835C10.9721 9.05672 10.5301 8.28754 10.0847 7.49209C9.8498 7.07252 9.28703 7.03343 9.00171 7.41687L8.06313 8.67822C7.94501 8.83697 7.79386 8.96512 7.6213 9.05282L5.51082 10.1254C5.44879 10.157 5.41911 10.2355 5.44416 10.303C5.47829 10.395 5.50372 10.4941 5.51897 10.5999L5.67472 11.6807C5.69097 11.7935 5.73538 11.8997 5.80342 11.9885C6.01709 12.2675 6.40601 12.3096 6.66924 12.0823L7.02269 11.7772C7.57828 11.2975 8.40273 11.4063 8.82836 12.0156L9.24235 12.6082C9.28827 12.6739 9.34489 12.7306 9.4096 12.7755L9.59557 12.9048H13.5345C13.561 12.7948 13.5847 12.6837 13.6055 12.5714Z" fill="black"/>
<path d="M8.48427 12.9048H6.75006L7.36479 12.3159C7.75036 11.9466 8.37163 12.1746 8.45516 12.7161L8.48427 12.9048Z" fill="black"/>
<path d="M5.77157 12.9048H2.46574C2.45044 12.8414 2.43608 12.7776 2.42266 12.7134L2.55192 12.4864C2.56693 12.4601 2.58774 12.438 2.61184 12.4207C2.76456 12.3109 2.89391 12.1657 2.98872 11.9938L3.86519 10.4046C3.96746 10.2192 4.15276 10.1121 4.34597 10.1102C4.62183 10.1408 4.87891 10.3484 4.92871 10.694L5.08445 11.7748C5.11654 11.9975 5.20422 12.2072 5.33854 12.3826C5.42845 12.4999 5.53407 12.5961 5.64966 12.6704C5.72763 12.7205 5.77377 12.8152 5.77157 12.9048Z" fill="black"/>
<path d="M14.1915 12.9048C14.3766 12.3025 14.4762 11.6629 14.4762 11C14.4762 7.4233 11.5767 4.52381 8 4.52381C4.4233 4.52381 1.52381 7.4233 1.52381 11C1.52381 11.6629 1.62341 12.3025 1.80846 12.9048H0.228149C0.07905 12.2943 0 11.6564 0 11C0 6.58172 3.58172 3 8 3C12.4183 3 16 6.58172 16 11C16 11.6564 15.9209 12.2943 15.7719 12.9048H14.1915Z" fill="black"/>
</svg>
