<svg width="16" height="16" viewBox="0 0 16 16" fill="none" xmlns="http://www.w3.org/2000/svg">
<path d="M13.4607 9.57932C12.7404 7.09252 10.5681 5.28571 8.0001 5.28571C4.84413 5.28571 2.28571 8.01465 2.28571 11.381C2.28571 11.6065 2.2972 11.8292 2.31958 12.0484L2.54418 11.9945C2.55616 11.9916 2.56801 11.9884 2.57972 11.9847C2.61478 11.9738 2.64308 11.9472 2.66186 11.9139L3.57637 10.291C3.81934 9.85979 4.23076 9.68092 4.62415 9.71524C4.74882 9.71811 4.87476 9.74506 4.99607 9.79822C5.12813 9.8561 5.27713 9.85141 5.40574 9.78534L7.2917 8.81653C7.37247 8.77504 7.44322 8.71441 7.49852 8.6393L8.33725 7.50001C8.82399 6.83885 9.78408 6.90625 10.1848 7.62972L11.0532 9.19742C11.1587 9.38783 11.351 9.50473 11.5589 9.50473H13.0705C13.2058 9.50473 13.3377 9.53068 13.4607 9.57932Z" fill="black"/>
<path d="M13.6587 10.5261L13.5742 10.3758C13.4682 10.1873 13.2769 10.072 13.0705 10.072H12.0482C11.9104 10.072 11.8319 10.2395 11.915 10.3564L12.8991 11.7422C12.9191 11.7704 12.9413 11.7967 12.9655 11.8209L13.6223 12.4774C13.6828 12.1217 13.7145 11.7553 13.7145 11.381C13.7145 11.0908 13.6955 10.8055 13.6587 10.5261Z" fill="black"/>
<path d="M13.2709 12.9048L12.6001 12.2341C12.5539 12.188 12.5115 12.1378 12.4734 12.0841L10.9746 9.97357C10.5181 9.3308 10.1231 8.63606 9.72514 7.91759C9.51522 7.53862 9.01231 7.50332 8.75735 7.84964L7.91862 8.98893C7.81306 9.13232 7.67799 9.24806 7.52379 9.32728L5.63783 10.2961C5.5824 10.3246 5.55587 10.3955 5.57826 10.4565C5.60876 10.5396 5.63149 10.6291 5.64512 10.7247L5.78429 11.7009C5.79882 11.8027 5.8385 11.8987 5.8993 11.9789C6.09025 12.2308 6.43778 12.2689 6.67302 12.0636L6.98886 11.788C7.48535 11.3547 8.22209 11.453 8.60244 12.0034L8.97239 12.5386C9.01342 12.598 9.06402 12.6491 9.12185 12.6897L9.42803 12.9048H13.2709Z" fill="black"/>
<path d="M8.30997 12.9048H6.64369L7.29457 12.2746C7.63912 11.941 8.1943 12.147 8.26895 12.636L8.30997 12.9048Z" fill="black"/>
<path d="M5.84316 12.9048H2.7254L2.99371 12.4286C3.00712 12.4048 3.02571 12.3849 3.04725 12.3692C3.18373 12.27 3.29932 12.1389 3.38404 11.9836L4.16727 10.5483C4.25865 10.3808 4.42424 10.2841 4.5969 10.2823C4.84341 10.31 5.07314 10.4975 5.11764 10.8097L5.25682 11.7859C5.28549 11.987 5.36385 12.1764 5.48388 12.3348C5.56423 12.4408 5.65861 12.5276 5.7619 12.5947C5.86156 12.6595 5.90301 12.8066 5.84316 12.9048Z" fill="black"/>
<path d="M14.1915 12.9048C14.3766 12.3025 14.4762 11.6629 14.4762 11C14.4762 7.4233 11.5767 4.52381 8 4.52381C4.4233 4.52381 1.52381 7.4233 1.52381 11C1.52381 11.6629 1.62341 12.3025 1.80846 12.9048H0.228149C0.07905 12.2943 0 11.6564 0 11C0 6.58172 3.58172 3 8 3C12.4183 3 16 6.58172 16 11C16 11.6564 15.9209 12.2943 15.7719 12.9048H14.1915Z" fill="black"/>
</svg>
