<svg width="210" height="131" viewBox="0 0 210 131" fill="none" xmlns="http://www.w3.org/2000/svg">
<path d="M205.924 130.128C208.146 121.711 209.329 112.876 209.329 103.768C209.329 46.4585 162.492 0 104.716 0C46.9398 0 0.103027 46.4585 0.103027 103.768C0.103027 112.876 1.28616 121.711 3.50831 130.128H11.8045C9.39713 121.758 8.10819 112.92 8.10819 103.783C8.10819 50.8505 51.3677 7.9405 104.731 7.9405C158.094 7.9405 201.354 50.8505 201.354 103.783C201.354 112.92 200.065 121.758 197.657 130.128H205.924Z" fill="#F24F32"/>
<path fill-rule="evenodd" clip-rule="evenodd" d="M193.62 112.797C193.922 109.833 194.076 106.826 194.076 103.783C194.076 54.8373 154.075 15.1591 104.731 15.1591C55.3869 15.1591 15.3856 54.8373 15.3856 103.783C15.3856 106.504 15.5093 109.197 15.7513 111.856L31.4274 104.287C31.7393 104.137 32.0291 103.945 32.289 103.717L47.5512 90.3384C48.4741 89.5294 49.5878 88.9643 50.7892 88.6953L56.5902 87.3965C56.6685 87.3789 56.746 87.359 56.8226 87.3368C57.0518 87.2703 57.2369 87.1077 57.3596 86.9044L63.339 77.0052C64.9276 74.3752 67.6176 73.2841 70.1897 73.4935C71.0048 73.5109 71.8283 73.6753 72.6214 73.9996C73.4849 74.3526 74.4591 74.3241 75.3 73.9211L87.631 68.0115C88.1591 67.7584 88.6217 67.3886 88.9832 66.9305L94.4671 59.9811C97.6496 55.9481 103.927 56.3593 106.547 60.7723L112.225 70.3348C112.915 71.4963 114.172 72.2094 115.531 72.2094H125.414C127.992 72.2094 130.379 73.5528 131.702 75.747L136.233 83.2648C136.43 83.5918 136.785 83.792 137.17 83.792H148.343C150.524 83.792 152.591 84.7558 153.983 86.4213L161.856 95.8437C162.178 96.229 162.573 96.5476 163.019 96.7811L193.62 112.797Z" fill="#F24F32"/>
<path d="M193.167 116.472L161.392 99.8413C160.54 99.3954 159.785 98.7872 159.17 98.0516L151.297 88.6293C150.568 87.7569 149.485 87.252 148.343 87.252H140.56C139.712 87.252 139.188 88.1686 139.623 88.8904L142.978 94.4571C143.252 94.9107 143.617 95.3029 144.052 95.6087L164.973 110.326C165.759 110.879 165.944 111.959 165.387 112.738C164.83 113.518 163.741 113.701 162.955 113.149L142.034 98.431C141.204 97.8473 140.506 97.0986 139.984 96.2325L128.708 77.5224C128.015 76.3731 126.764 75.6694 125.414 75.6694H118.731C117.829 75.6694 117.316 76.6913 117.859 77.4046L124.294 85.8577C124.425 86.0294 124.57 86.1898 124.728 86.3372L130.023 91.2756C130.725 91.9301 130.759 93.0249 130.1 93.7211C129.44 94.4172 128.336 94.451 127.634 93.7965L122.339 88.8581C122.037 88.5767 121.76 88.2705 121.51 87.9427L111.711 75.0692C108.726 71.1484 106.144 66.9107 103.542 62.5282C102.169 60.2166 98.8809 60.0012 97.2139 62.1137L91.73 69.0631C91.0398 69.9378 90.1567 70.6438 89.1484 71.127L76.8175 77.0365C76.4551 77.2102 76.2816 77.6431 76.428 78.015C76.6274 78.5217 76.776 79.0675 76.8651 79.6506L77.7751 85.6053C77.87 86.2267 78.1295 86.8119 78.527 87.3012C79.7755 88.838 82.0478 89.0702 83.5859 87.818L85.6509 86.1367C88.8971 83.4938 93.7141 84.0936 96.201 87.4504L98.6198 90.7152C98.8881 91.0774 99.219 91.3895 99.597 91.6372L142.097 119.482L163.196 129.964C163.347 130.04 163.515 130.079 163.684 130.079H190.078C191.454 125.68 192.493 121.135 193.167 116.472Z" fill="#F24F32"/>
<path d="M19.0156 128.869L30.1852 119.66L44.8686 107.2C45.1836 106.933 45.4528 106.617 45.6659 106.264L53.3483 93.5456C53.8417 92.7286 53.1081 91.7231 52.1715 91.9328L51.5572 92.0704C50.9279 92.2113 50.3445 92.5073 49.8611 92.931L34.5989 106.31C34.1027 106.745 33.5494 107.111 32.954 107.398L16.1605 115.506C16.7698 120.08 17.7308 124.543 19.0156 128.869Z" fill="#F24F32"/>
<path d="M151.51 128.028C152.539 128.539 152.172 130.079 151.021 130.079H54.916C53.9301 130.079 53.4493 128.885 54.164 128.211L61.222 121.557C61.6748 121.13 62.0707 120.647 62.4 120.121L73.9196 101.702C74.1066 101.403 74.3345 101.131 74.5968 100.894L87.6497 89.1051C89.9025 87.0703 93.5324 88.3264 94.0205 91.3095L95.1962 98.4956C95.4626 100.124 96.2795 101.613 97.5125 102.72L110.537 114.408C111.252 115.049 112.354 114.994 113.001 114.285C113.647 113.577 113.592 112.483 112.877 111.842L99.8527 100.154C99.2068 99.5745 98.7789 98.7941 98.6394 97.9413L98.528 97.2605C98.3756 96.3291 99.4134 95.6635 100.207 96.1835L140.348 122.483L151.51 128.028Z" fill="#F24F32"/>
<path d="M46.6838 130.079C46.9638 130.079 47.233 129.972 47.4359 129.781L58.8189 119.049C59.0561 118.825 59.2634 118.573 59.4359 118.297L70.9555 99.8782C71.3125 99.3073 71.7476 98.7884 72.2484 98.3361L77.9777 93.1614C78.6142 92.5865 78.3632 91.5028 77.6287 91.0577C76.9533 90.6484 76.3362 90.1188 75.8109 89.4721C75.0261 88.506 74.5138 87.3506 74.3263 86.1239L73.4163 80.1692C73.1254 78.2652 71.6233 77.1212 70.0115 76.9526C68.8827 76.9632 67.8 77.5532 67.2025 78.5747L62.0815 87.3302C61.5276 88.2772 60.7718 89.0771 59.8795 89.6822C59.7386 89.7777 59.6171 89.8992 59.5294 90.0444L48.6581 108.043C48.2514 108.716 47.7374 109.319 47.1361 109.83L32.4341 122.305L25.3286 128.163C24.543 128.811 25.0048 130.079 26.0264 130.079H46.6838Z" fill="#F24F32"/>
</svg>
