<svg width="1204" height="359" viewBox="0 0 1204 359" fill="none" xmlns="http://www.w3.org/2000/svg">
<path d="M0 0H1204V359H0V0Z" fill="#F24F32"/>
<path d="M792.604 303C796.778 287.087 799 270.386 799 253.167C799 144.827 711.024 57 602.5 57C493.976 57 406 144.827 406 253.167C406 270.386 408.222 287.087 412.396 303H427.979C423.458 287.176 421.037 270.468 421.037 253.195C421.037 153.13 502.293 72.0111 602.528 72.0111C702.763 72.0111 784.02 153.13 784.02 253.195C784.02 270.468 781.599 287.176 777.077 303H792.604Z" fill="#F0E6E0"/>
<path fill-rule="evenodd" clip-rule="evenodd" d="M769.493 270.236C770.06 264.632 770.35 258.948 770.35 253.195C770.35 160.667 695.214 85.6575 602.528 85.6575C509.843 85.6575 434.706 160.667 434.706 253.195C434.706 258.34 434.938 263.431 435.393 268.457L464.838 254.149C465.424 253.864 465.968 253.502 466.457 253.071L495.124 227.779C496.858 226.25 498.95 225.182 501.206 224.673L512.103 222.218C512.25 222.185 512.396 222.147 512.539 222.105C512.97 221.98 513.318 221.672 513.548 221.288L524.779 202.574C527.763 197.602 532.816 195.539 537.648 195.935C539.179 195.968 540.725 196.279 542.215 196.892C543.837 197.559 545.667 197.505 547.246 196.743L570.408 185.572C571.4 185.093 572.269 184.394 572.948 183.528L583.249 170.391C589.227 162.767 601.018 163.544 605.94 171.886L616.605 189.964C617.9 192.16 620.262 193.508 622.815 193.508H641.379C646.22 193.508 650.705 196.047 653.189 200.195L661.699 214.407C662.07 215.025 662.738 215.404 663.459 215.404H684.447C688.543 215.404 692.427 217.226 695.041 220.375L709.829 238.187C710.434 238.915 711.176 239.518 712.014 239.959L769.493 270.236Z" fill="#F0E6E0"/>
<path d="M768.643 277.184L708.957 245.744C707.357 244.901 705.939 243.752 704.784 242.361L689.996 224.549C688.627 222.899 686.593 221.945 684.447 221.945H669.828C668.236 221.945 667.251 223.678 668.068 225.042L674.37 235.566C674.883 236.423 675.57 237.165 676.387 237.743L715.684 265.565C717.16 266.61 717.508 268.652 716.461 270.125C715.415 271.598 713.37 271.946 711.894 270.901L672.596 243.078C671.038 241.975 669.727 240.559 668.746 238.922L647.565 203.552C646.264 201.379 643.915 200.049 641.379 200.049H628.824C627.132 200.049 626.168 201.98 627.188 203.329L639.275 219.309C639.52 219.634 639.793 219.937 640.09 220.215L650.036 229.551C651.355 230.789 651.419 232.858 650.179 234.174C648.94 235.49 646.867 235.554 645.548 234.317L635.602 224.981C635.035 224.449 634.515 223.87 634.046 223.251L615.639 198.914C610.032 191.502 605.182 183.491 600.294 175.206C597.716 170.836 591.54 170.429 588.408 174.422L578.108 187.56C576.811 189.213 575.153 190.548 573.259 191.461L550.097 202.633C549.416 202.961 549.09 203.78 549.365 204.483C549.74 205.441 550.019 206.473 550.186 207.575L551.896 218.832C552.074 220.007 552.561 221.113 553.308 222.038C555.653 224.943 559.921 225.382 562.81 223.015L566.689 219.836C572.787 214.84 581.835 215.974 586.506 222.32L591.049 228.492C591.553 229.176 592.175 229.767 592.885 230.235L672.714 282.873L712.345 302.69C712.631 302.832 712.945 302.906 713.264 302.906H762.839C765.424 294.591 767.377 285.998 768.643 277.184Z" fill="#F0E6E0"/>
<path d="M441.524 300.62L462.505 283.209L490.086 259.656C490.677 259.151 491.183 258.553 491.583 257.887L506.013 233.842C506.94 232.298 505.562 230.397 503.803 230.794L502.649 231.054C501.467 231.32 500.371 231.88 499.463 232.681L470.795 257.972C469.863 258.795 468.824 259.487 467.706 260.03L436.162 275.358C437.306 284.004 439.111 292.442 441.524 300.62Z" fill="#F0E6E0"/>
<path d="M690.395 299.029C692.329 299.996 691.64 302.906 689.477 302.906H508.958C507.106 302.906 506.203 300.65 507.546 299.376L520.803 286.796C521.654 285.989 522.397 285.077 523.016 284.081L544.654 249.262C545.005 248.697 545.433 248.183 545.926 247.735L570.444 225.448C574.675 221.601 581.493 223.976 582.41 229.615L584.619 243.2C585.119 246.278 586.653 249.094 588.969 251.186L613.434 273.281C614.776 274.493 616.848 274.389 618.062 273.05C619.275 271.711 619.172 269.642 617.83 268.431L593.365 246.335C592.152 245.24 591.348 243.765 591.086 242.152L590.877 240.865C590.591 239.105 592.54 237.846 594.031 238.829L669.43 288.546L690.395 299.029Z" fill="#F0E6E0"/>
<path d="M493.495 302.906C494.021 302.906 494.527 302.705 494.908 302.343L516.289 282.055C516.735 281.633 517.124 281.155 517.448 280.633L539.086 245.814C539.757 244.735 540.574 243.754 541.514 242.899L552.276 233.116C553.472 232.029 553 229.981 551.621 229.139C550.352 228.366 549.193 227.364 548.206 226.142C546.732 224.316 545.77 222.131 545.418 219.812L543.708 208.555C543.162 204.956 540.34 202.793 537.313 202.474C535.192 202.495 533.159 203.61 532.036 205.541L522.417 222.093C521.377 223.883 519.957 225.395 518.281 226.539C518.017 226.719 517.788 226.949 517.624 227.224L497.204 261.248C496.44 262.521 495.474 263.662 494.345 264.627L466.729 288.21L453.383 299.285C451.907 300.51 452.774 302.906 454.693 302.906H493.495Z" fill="#F0E6E0"/>
<path d="M296.554 176.006C296.554 176.165 296.613 176.244 296.732 176.244H296.792C296.832 176.244 296.971 176.125 297.209 175.887C297.487 175.648 297.864 175.351 298.341 174.993C298.817 174.636 299.373 174.278 300.009 173.921C300.644 173.563 301.419 173.266 302.332 173.027C303.245 172.749 304.199 172.61 305.191 172.61H305.311C306.145 172.61 306.959 172.729 307.753 172.968C308.587 173.166 309.461 173.563 310.374 174.159C311.327 174.715 312.121 175.609 312.757 176.84C313.392 178.071 313.789 179.58 313.948 181.367C314.028 182.042 314.067 183.075 314.067 184.465C314.067 184.624 314.067 185.021 314.067 185.656C314.067 186.252 314.048 187.344 314.008 188.933C314.008 190.521 314.008 192.547 314.008 195.009V195.128C314.008 195.326 314.028 195.525 314.067 195.724C314.107 195.882 314.127 196.021 314.127 196.141C314.167 196.22 314.246 196.319 314.365 196.438C314.484 196.518 314.564 196.577 314.604 196.617C314.683 196.657 314.822 196.716 315.021 196.796C315.259 196.836 315.418 196.855 315.497 196.855C315.616 196.855 315.835 196.875 316.152 196.915C316.51 196.955 316.768 196.994 316.927 197.034C317.522 197.114 317.82 197.491 317.82 198.166C317.82 198.96 317.503 199.357 316.867 199.357C316.748 199.357 316.47 199.318 316.033 199.238C315.596 199.199 314.981 199.139 314.187 199.06C313.432 199.02 312.618 199 311.744 199C311.228 199 310.712 199 310.195 199C309.679 199.04 309.222 199.079 308.825 199.119C308.468 199.159 308.13 199.199 307.812 199.238C307.495 199.278 307.237 199.318 307.038 199.357H306.74C306.184 199.357 305.906 198.96 305.906 198.166C305.906 197.729 306.025 197.451 306.264 197.332C306.502 197.213 307.137 197.074 308.17 196.915C308.527 196.836 308.825 196.776 309.063 196.736C309.461 196.657 309.719 196.538 309.838 196.379C309.997 196.18 310.076 195.823 310.076 195.307V185.835C310.076 182.856 309.798 180.652 309.242 179.223C308.646 177.872 307.753 176.939 306.562 176.423C305.37 175.867 304.238 175.589 303.166 175.589C301.617 175.589 300.227 176.065 298.996 177.019C297.765 177.972 297.07 178.806 296.911 179.521C296.832 179.838 296.792 180.116 296.792 180.354V194.949C296.792 195.982 297.249 196.558 298.162 196.677C299.949 196.955 300.922 197.173 301.081 197.332C301.319 197.531 301.438 197.868 301.438 198.345C301.438 199.06 301.18 199.417 300.664 199.417C300.624 199.417 300.485 199.397 300.247 199.357C300.049 199.357 299.771 199.338 299.413 199.298C299.056 199.258 298.659 199.199 298.222 199.119C297.785 199.079 297.269 199.04 296.673 199C296.117 199 295.561 199 295.005 199C294.449 199 293.893 199 293.337 199C292.781 199.04 292.285 199.079 291.848 199.119C291.451 199.159 291.093 199.199 290.775 199.238C290.458 199.278 290.2 199.298 290.001 199.298C289.802 199.338 289.683 199.357 289.644 199.357C288.968 199.357 288.631 199 288.631 198.285C288.631 197.729 288.75 197.392 288.988 197.272C289.266 197.114 289.941 196.955 291.014 196.796C291.729 196.677 292.165 196.458 292.324 196.141C292.523 195.823 292.622 195.346 292.622 194.711V180.176C292.622 179.461 292.523 178.984 292.324 178.746C292.126 178.468 291.312 177.793 289.882 176.721C289.644 176.482 289.524 176.284 289.524 176.125V176.065C289.524 175.867 289.663 175.688 289.941 175.529C290.219 175.331 291.073 174.854 292.503 174.1C293.615 173.504 294.548 173.007 295.303 172.61C295.541 172.451 295.74 172.372 295.898 172.372C296.375 172.372 296.613 172.67 296.613 173.266V175.648C296.613 175.688 296.593 175.768 296.554 175.887V176.006Z" fill="#F1E8E3"/>
<path d="M264.445 186.431C264.445 182.3 265.537 178.984 267.722 176.482C269.906 173.98 272.567 172.729 275.704 172.729C277.729 172.729 279.675 173.285 281.542 174.397C283.409 175.509 284.957 176.899 286.188 178.567C286.506 178.965 286.665 179.401 286.665 179.878V179.997C286.665 180.354 286.566 180.672 286.367 180.95C286.169 181.228 285.851 181.486 285.414 181.725C284.977 181.923 284.6 182.082 284.282 182.201C283.965 182.32 283.488 182.479 282.853 182.678C282.257 182.876 281.88 182.995 281.721 183.035C273.421 185.895 269.171 187.384 268.973 187.503C268.814 187.582 268.734 187.701 268.734 187.86C268.734 188.099 268.794 188.496 268.913 189.052C269.032 189.608 269.29 190.342 269.688 191.256C270.124 192.169 270.641 193.023 271.236 193.817C271.872 194.572 272.765 195.247 273.917 195.843C275.069 196.399 276.359 196.677 277.789 196.677C280.569 196.677 282.992 195.684 285.057 193.698C285.613 193.142 286.069 192.864 286.427 192.864C287.102 192.864 287.439 193.162 287.439 193.758C287.439 193.996 287.281 194.314 286.963 194.711C285.692 196.379 284.104 197.709 282.197 198.702C280.291 199.655 278.285 200.132 276.181 200.132C274.83 200.132 273.5 199.894 272.189 199.417C270.919 198.94 269.668 198.206 268.437 197.213C267.245 196.22 266.272 194.79 265.518 192.924C264.803 191.057 264.445 188.893 264.445 186.431ZM280.768 180.116C280.768 179.6 280.073 178.806 278.683 177.733C277.293 176.621 275.843 176.065 274.334 176.065C272.547 176.065 271.117 176.84 270.045 178.389C269.012 179.938 268.496 182.062 268.496 184.763C268.496 185.08 268.595 185.239 268.794 185.239C268.873 185.239 270.76 184.524 274.453 183.095C278.186 181.625 280.112 180.871 280.231 180.831C280.589 180.632 280.768 180.394 280.768 180.116Z" fill="#F1E8E3"/>
<path d="M225.665 167.845C225.665 167.686 225.705 167.209 225.784 166.415C225.864 165.621 225.943 164.529 226.022 163.139C226.142 161.749 226.201 160.259 226.201 158.671V156.407C226.201 155.295 226.618 154.739 227.452 154.739C228.088 154.739 228.624 155.216 229.061 156.169C229.418 157.281 230.53 157.837 232.396 157.837H258.965C259.958 157.837 260.454 158.194 260.454 158.909C260.454 159.227 259.402 160.776 257.297 163.556C256.344 164.787 255.569 165.799 254.974 166.594L246.098 177.733C241.61 183.214 238.373 187.721 236.388 191.256C236.149 191.613 236.03 191.911 236.03 192.149C236.03 192.785 236.388 193.202 237.103 193.4C237.857 193.559 239.545 193.718 242.166 193.877C244.112 193.996 246.098 194.056 248.123 194.056H249.434C252.094 194.056 254.08 193.857 255.391 193.46C256.701 193.023 257.714 191.991 258.429 190.362C258.667 189.727 258.945 188.575 259.263 186.907C259.58 185.2 259.799 184.227 259.918 183.988C260.196 183.591 260.573 183.393 261.05 183.393C261.368 183.393 261.685 183.551 262.003 183.869C262.36 184.147 262.539 184.564 262.539 185.12V185.18C262.539 185.934 262.499 186.629 262.42 187.265C262.34 187.9 262.241 188.615 262.122 189.409C262.003 190.203 261.904 190.898 261.824 191.494C261.785 192.09 261.725 192.884 261.646 193.877C261.606 194.87 261.546 195.585 261.467 196.021C261.427 196.419 261.328 196.895 261.169 197.451C261.05 197.967 260.851 198.345 260.573 198.583C260.295 198.821 259.918 198.96 259.441 199H227.393C226.241 199 225.665 198.563 225.665 197.689C225.665 197.372 225.844 196.994 226.201 196.558C234.303 185.12 242.881 174.397 251.936 164.39C252.492 163.754 252.77 163.317 252.77 163.079C252.77 162.642 252.492 162.424 251.936 162.424H232.218C231.86 162.424 231.562 162.444 231.324 162.483C231.086 162.483 230.848 162.523 230.609 162.603C230.411 162.682 230.232 162.742 230.073 162.781C229.954 162.821 229.815 162.96 229.656 163.198C229.537 163.437 229.438 163.615 229.358 163.734C229.279 163.814 229.18 164.052 229.061 164.449C228.941 164.846 228.862 165.164 228.822 165.402C228.783 165.601 228.683 165.998 228.524 166.594C228.366 167.189 228.246 167.666 228.167 168.023C227.929 168.897 227.512 169.334 226.916 169.334C226.598 169.334 226.3 169.215 226.022 168.977C225.784 168.738 225.665 168.361 225.665 167.845Z" fill="#F1E8E3"/>
<path d="M201.182 186.431C201.182 182.3 202.274 178.984 204.458 176.482C206.642 173.98 209.303 172.729 212.44 172.729C214.466 172.729 216.412 173.285 218.278 174.397C220.145 175.509 221.694 176.899 222.925 178.567C223.243 178.965 223.401 179.401 223.401 179.878V179.997C223.401 180.354 223.302 180.672 223.104 180.95C222.905 181.228 222.587 181.486 222.15 181.725C221.714 181.923 221.336 182.082 221.019 182.201C220.701 182.32 220.224 182.479 219.589 182.678C218.993 182.876 218.616 182.995 218.457 183.035C210.157 185.895 205.908 187.384 205.709 187.503C205.55 187.582 205.471 187.701 205.471 187.86C205.471 188.099 205.53 188.496 205.649 189.052C205.769 189.608 206.027 190.342 206.424 191.256C206.861 192.169 207.377 193.023 207.973 193.817C208.608 194.572 209.502 195.247 210.653 195.843C211.805 196.399 213.096 196.677 214.525 196.677C217.305 196.677 219.728 195.684 221.793 193.698C222.349 193.142 222.806 192.864 223.163 192.864C223.838 192.864 224.176 193.162 224.176 193.758C224.176 193.996 224.017 194.314 223.699 194.711C222.428 196.379 220.84 197.709 218.934 198.702C217.027 199.655 215.022 200.132 212.917 200.132C211.567 200.132 210.236 199.894 208.926 199.417C207.655 198.94 206.404 198.206 205.173 197.213C203.981 196.22 203.008 194.79 202.254 192.924C201.539 191.057 201.182 188.893 201.182 186.431ZM217.504 180.116C217.504 179.6 216.809 178.806 215.419 177.733C214.029 176.621 212.579 176.065 211.07 176.065C209.283 176.065 207.854 176.84 206.781 178.389C205.749 179.938 205.232 182.062 205.232 184.763C205.232 185.08 205.332 185.239 205.53 185.239C205.61 185.239 207.496 184.524 211.189 183.095C214.923 181.625 216.849 180.871 216.968 180.831C217.325 180.632 217.504 180.394 217.504 180.116Z" fill="#F1E8E3"/>
<path d="M178.009 176.006C178.009 176.165 178.068 176.244 178.188 176.244H178.247C178.287 176.244 178.426 176.125 178.664 175.887C178.942 175.648 179.319 175.351 179.796 174.993C180.272 174.636 180.828 174.278 181.464 173.921C182.099 173.563 182.874 173.266 183.787 173.027C184.701 172.749 185.654 172.61 186.646 172.61H186.766C187.6 172.61 188.414 172.729 189.208 172.968C190.042 173.166 190.916 173.563 191.829 174.159C192.782 174.715 193.576 175.609 194.212 176.84C194.847 178.071 195.244 179.58 195.403 181.367C195.483 182.042 195.522 183.075 195.522 184.465C195.522 184.624 195.522 185.021 195.522 185.656C195.522 186.252 195.503 187.344 195.463 188.933C195.463 190.521 195.463 192.547 195.463 195.009V195.128C195.463 195.326 195.483 195.525 195.522 195.724C195.562 195.882 195.582 196.021 195.582 196.141C195.622 196.22 195.701 196.319 195.82 196.438C195.939 196.518 196.019 196.577 196.059 196.617C196.138 196.657 196.277 196.716 196.476 196.796C196.714 196.836 196.873 196.855 196.952 196.855C197.071 196.855 197.29 196.875 197.607 196.915C197.965 196.955 198.223 196.994 198.382 197.034C198.978 197.114 199.275 197.491 199.275 198.166C199.275 198.96 198.958 199.357 198.322 199.357C198.203 199.357 197.925 199.318 197.488 199.238C197.051 199.199 196.436 199.139 195.642 199.06C194.887 199.02 194.073 199 193.199 199C192.683 199 192.167 199 191.65 199C191.134 199.04 190.677 199.079 190.28 199.119C189.923 199.159 189.585 199.199 189.268 199.238C188.95 199.278 188.692 199.318 188.493 199.357H188.195C187.639 199.357 187.361 198.96 187.361 198.166C187.361 197.729 187.48 197.451 187.719 197.332C187.957 197.213 188.592 197.074 189.625 196.915C189.982 196.836 190.28 196.776 190.519 196.736C190.916 196.657 191.174 196.538 191.293 196.379C191.452 196.18 191.531 195.823 191.531 195.307V185.835C191.531 182.856 191.253 180.652 190.697 179.223C190.102 177.872 189.208 176.939 188.017 176.423C186.825 175.867 185.693 175.589 184.621 175.589C183.072 175.589 181.682 176.065 180.451 177.019C179.22 177.972 178.525 178.806 178.366 179.521C178.287 179.838 178.247 180.116 178.247 180.354V194.949C178.247 195.982 178.704 196.558 179.617 196.677C181.404 196.955 182.377 197.173 182.536 197.332C182.774 197.531 182.894 197.868 182.894 198.345C182.894 199.06 182.635 199.417 182.119 199.417C182.079 199.417 181.94 199.397 181.702 199.357C181.504 199.357 181.226 199.338 180.868 199.298C180.511 199.258 180.114 199.199 179.677 199.119C179.24 199.079 178.724 199.04 178.128 199C177.572 199 177.016 199 176.46 199C175.904 199 175.348 199 174.792 199C174.236 199.04 173.74 199.079 173.303 199.119C172.906 199.159 172.548 199.199 172.23 199.238C171.913 199.278 171.655 199.298 171.456 199.298C171.257 199.338 171.138 199.357 171.099 199.357C170.424 199.357 170.086 199 170.086 198.285C170.086 197.729 170.205 197.392 170.443 197.272C170.721 197.114 171.396 196.955 172.469 196.796C173.184 196.677 173.62 196.458 173.779 196.141C173.978 195.823 174.077 195.346 174.077 194.711V180.176C174.077 179.461 173.978 178.984 173.779 178.746C173.581 178.468 172.767 177.793 171.337 176.721C171.099 176.482 170.979 176.284 170.979 176.125V176.065C170.979 175.867 171.118 175.688 171.396 175.529C171.674 175.331 172.528 174.854 173.958 174.1C175.07 173.504 176.003 173.007 176.758 172.61C176.996 172.451 177.195 172.372 177.354 172.372C177.83 172.372 178.068 172.67 178.068 173.266V175.648C178.068 175.688 178.049 175.768 178.009 175.887V176.006Z" fill="#F1E8E3"/>
<path d="M160.376 191.613C160.376 189.548 160.376 187.622 160.376 185.835C160.376 184.048 160.376 182.658 160.376 181.665C160.416 180.632 160.436 180.017 160.436 179.818C160.436 179.382 160.277 179.084 159.959 178.925C159.681 178.726 158.47 178.19 156.325 177.316C155.809 177.118 155.551 176.86 155.551 176.542C155.551 176.423 155.571 176.304 155.61 176.185C155.69 176.065 155.789 175.966 155.908 175.887C156.067 175.807 156.206 175.748 156.325 175.708C156.444 175.629 156.603 175.549 156.802 175.47C157 175.39 157.139 175.331 157.219 175.291C161.667 173.146 163.91 172.074 163.95 172.074H164.01C164.566 172.074 164.844 172.412 164.844 173.087L164.784 175.053C164.705 176.363 164.625 178.131 164.546 180.354C164.506 182.539 164.486 184.723 164.486 186.907V188.933C164.486 192.705 164.546 194.929 164.665 195.604C164.784 196.28 165.181 196.657 165.856 196.736C167.048 196.895 167.802 197.034 168.12 197.153C168.438 197.272 168.597 197.57 168.597 198.047C168.597 198.921 168.358 199.357 167.882 199.357C167.842 199.357 167.723 199.338 167.524 199.298C167.326 199.298 167.048 199.278 166.69 199.238C166.333 199.199 165.936 199.159 165.499 199.119C165.062 199.079 164.546 199.04 163.95 199C163.394 199 162.838 199 162.282 199C161.726 199 161.15 199 160.555 199C159.959 199.04 159.443 199.079 159.006 199.119C158.609 199.159 158.231 199.199 157.874 199.238C157.517 199.278 157.239 199.298 157.04 199.298C156.841 199.338 156.722 199.357 156.683 199.357C156.047 199.357 155.729 199.02 155.729 198.345C155.729 197.67 155.849 197.272 156.087 197.153C156.365 197.034 157.258 196.875 158.768 196.677C159.482 196.558 159.919 196.339 160.078 196.021C160.277 195.664 160.376 195.148 160.376 194.473V191.613ZM160.972 161.292C160.972 160.498 161.27 159.823 161.865 159.267C162.461 158.711 163.156 158.433 163.95 158.433C164.744 158.433 165.42 158.711 165.976 159.267C166.571 159.823 166.869 160.478 166.869 161.232C166.869 162.066 166.571 162.761 165.976 163.317C165.42 163.873 164.725 164.151 163.891 164.151C163.057 164.151 162.362 163.893 161.806 163.377C161.25 162.821 160.972 162.126 160.972 161.292Z" fill="#F1E8E3"/>
<path d="M139.824 197.332C142.406 197.332 144.649 196.359 146.556 194.413C148.502 192.467 149.475 190.025 149.475 187.086C149.475 184.187 148.502 181.665 146.556 179.521C144.649 177.376 142.465 176.304 140.003 176.304C138.494 176.304 137.144 176.741 135.952 177.614C134.8 178.409 134.225 179.66 134.225 181.367V194.473C134.225 195.267 134.741 195.902 135.773 196.379C137.044 197.014 138.395 197.332 139.824 197.332ZM142.028 172.729C145.364 172.729 148.104 174.02 150.249 176.602C152.433 179.183 153.525 182.281 153.525 185.895C153.525 189.906 152.175 193.162 149.475 195.664C146.774 198.166 143.299 199.417 139.05 199.417C138.653 199.417 138.256 199.397 137.858 199.357C137.461 199.357 137.104 199.338 136.786 199.298C136.468 199.258 136.19 199.218 135.952 199.179C135.714 199.139 135.515 199.119 135.356 199.119L135.118 199.06C134.84 199.06 134.701 199.278 134.701 199.715V208.293C134.701 209.246 135.158 209.762 136.071 209.842C136.468 209.882 136.925 209.921 137.441 209.961C137.997 210.001 138.395 210.021 138.633 210.021C138.871 210.06 139.149 210.1 139.467 210.14C139.785 210.179 140.003 210.239 140.122 210.318C140.281 210.398 140.42 210.497 140.539 210.616C140.698 210.735 140.797 210.874 140.837 211.033C140.877 211.232 140.896 211.47 140.896 211.748C140.896 212.344 140.658 212.642 140.182 212.642C140.102 212.642 139.804 212.622 139.288 212.582C138.812 212.542 138.136 212.503 137.263 212.463C136.389 212.423 135.456 212.403 134.463 212.403C133.152 212.403 131.842 212.443 130.531 212.522C129.26 212.602 128.248 212.681 127.493 212.761L126.361 212.88C125.686 212.88 125.349 212.483 125.349 211.688C125.349 211.569 125.349 211.45 125.349 211.331C125.388 211.252 125.428 211.172 125.468 211.093C125.547 211.053 125.607 210.993 125.646 210.914C125.686 210.874 125.766 210.815 125.885 210.735C126.044 210.696 126.163 210.656 126.242 210.616C126.361 210.616 126.52 210.576 126.719 210.497C126.957 210.457 127.156 210.418 127.314 210.378C127.513 210.378 127.771 210.338 128.089 210.259C128.407 210.179 128.685 210.12 128.923 210.08C129.797 209.921 130.233 209.365 130.233 208.412V180.116C130.233 179.481 129.975 179.064 129.459 178.865C128.903 178.627 128.228 178.329 127.434 177.972C126.401 177.535 125.785 177.257 125.587 177.138C125.428 177.019 125.349 176.88 125.349 176.721V176.661C125.349 176.502 126.242 175.907 128.029 174.874C129.459 174.04 130.75 173.285 131.901 172.61C132.021 172.531 132.14 172.471 132.259 172.432C132.378 172.352 132.457 172.293 132.497 172.253C132.576 172.174 132.636 172.134 132.676 172.134C132.755 172.094 132.835 172.074 132.914 172.074C133.232 172.074 133.391 172.312 133.391 172.789V176.363C133.391 176.602 133.47 176.721 133.629 176.721L134.403 175.887C134.92 175.331 135.734 174.735 136.846 174.1C137.958 173.424 139.209 172.988 140.599 172.789C140.916 172.749 141.393 172.729 142.028 172.729Z" fill="#F1E8E3"/>
<path d="M123.919 198.166C123.919 198.96 123.681 199.357 123.204 199.357C123.164 199.357 123.025 199.338 122.787 199.298C122.589 199.298 122.311 199.278 121.953 199.238C121.596 199.199 121.199 199.159 120.762 199.119C120.325 199.079 119.809 199.04 119.213 199C118.617 199 118.041 199 117.485 199C116.929 199 116.373 199 115.817 199C115.261 199.04 114.765 199.06 114.328 199.06C113.891 199.099 113.494 199.139 113.137 199.179C112.819 199.218 112.561 199.238 112.362 199.238C112.164 199.278 112.045 199.298 112.005 199.298C111.409 199.298 111.111 198.94 111.111 198.226V198.047C111.111 197.531 111.23 197.213 111.469 197.094C111.747 196.935 112.462 196.796 113.613 196.677C114.328 196.597 114.785 196.379 114.983 196.021C115.222 195.624 115.341 195.068 115.341 194.354V163.317C115.341 163.198 115.321 163.099 115.281 163.02C115.281 162.9 115.261 162.801 115.222 162.722C115.182 162.642 115.142 162.583 115.103 162.543C115.103 162.464 115.043 162.404 114.924 162.364C114.844 162.285 114.765 162.225 114.686 162.186C114.646 162.146 114.527 162.086 114.328 162.007C114.169 161.888 114.05 161.808 113.971 161.769C113.574 161.53 113.137 161.292 112.66 161.054C112.223 160.776 111.906 160.577 111.707 160.458C111.548 160.339 111.369 160.22 111.171 160.101C110.972 159.942 110.833 159.823 110.754 159.743C110.714 159.624 110.694 159.505 110.694 159.386V159.326C110.694 159.128 111.449 158.631 112.958 157.837C114.825 156.924 116.572 156.03 118.2 155.156C118.438 154.997 118.697 154.918 118.975 154.918C119.531 154.918 119.809 155.295 119.809 156.05V194.651C119.809 194.89 119.809 195.088 119.809 195.247C119.848 195.406 119.888 195.565 119.928 195.724C119.967 195.843 120.007 195.942 120.047 196.021C120.087 196.101 120.166 196.18 120.285 196.26C120.444 196.339 120.543 196.399 120.583 196.438C120.662 196.478 120.801 196.538 121 196.617C121.238 196.657 121.397 196.697 121.477 196.736C121.596 196.736 121.814 196.756 122.132 196.796C122.489 196.836 122.747 196.875 122.906 196.915C123.581 197.034 123.919 197.451 123.919 198.166Z" fill="#F1E8E3"/>
<path d="M68.3398 199C67.6647 199 66.9896 199 66.3145 199C65.6393 199.04 65.0436 199.079 64.5273 199.119C64.0111 199.159 63.5544 199.199 63.1572 199.238C62.7601 199.278 62.4424 199.298 62.2041 199.298C61.9658 199.338 61.8268 199.357 61.7871 199.357C60.9531 199.357 60.5361 198.94 60.5361 198.106C60.5361 197.908 60.5361 197.749 60.5361 197.63C60.5758 197.471 60.6156 197.332 60.6553 197.213C60.7347 197.094 60.7943 196.994 60.834 196.915C60.8737 196.836 60.9531 196.776 61.0723 196.736C61.2311 196.657 61.3304 196.617 61.3701 196.617C61.4098 196.577 61.529 196.538 61.7275 196.498C61.9658 196.458 62.1048 196.438 62.1445 196.438C62.224 196.399 62.4027 196.359 62.6807 196.319C62.9984 196.28 63.1969 196.26 63.2764 196.26C64.2295 196.141 64.9443 195.902 65.4209 195.545C65.8975 195.148 66.3542 194.413 66.791 193.341C69.6504 186.947 72.748 180.434 76.084 173.802C81.9616 162.682 84.9997 156.983 85.1982 156.705C85.2777 156.626 85.3968 156.526 85.5557 156.407C85.9925 156.09 86.4889 155.931 87.0449 155.931C88.1172 155.931 88.971 156.705 89.6064 158.254L98.3633 178.508C102.811 189.27 105.075 194.711 105.154 194.83C105.591 195.465 106.167 195.882 106.882 196.081C107.636 196.28 108.272 196.419 108.788 196.498C109.344 196.577 109.662 196.816 109.741 197.213C109.821 197.531 109.86 197.809 109.86 198.047C109.86 198.921 109.443 199.357 108.609 199.357L107.597 199.238C106.922 199.199 106.008 199.139 104.856 199.06C103.744 199.02 102.652 199 101.58 199C100.27 199 99.0781 199.02 98.0059 199.06C96.9336 199.139 96.0798 199.199 95.4443 199.238C94.8486 199.318 94.4912 199.357 94.3721 199.357C93.5381 199.357 93.1211 199.02 93.1211 198.345C93.1211 198.146 93.1211 197.967 93.1211 197.809C93.1608 197.65 93.2005 197.511 93.2402 197.392C93.3197 197.233 93.3594 197.114 93.3594 197.034C93.3991 196.955 93.4984 196.875 93.6572 196.796C93.8161 196.716 93.9352 196.677 94.0146 196.677C94.0941 196.637 94.2529 196.597 94.4912 196.558C94.7295 196.518 94.9082 196.498 95.0273 196.498C95.1862 196.458 95.4443 196.419 95.8018 196.379C96.1592 196.339 96.457 196.299 96.6953 196.26C97.5293 196.101 97.9463 195.704 97.9463 195.068C97.9463 194.473 97.4499 192.666 96.457 189.647C95.5039 186.59 94.4714 183.81 93.3594 181.308C93.2005 180.91 92.8431 180.712 92.2871 180.712H77.9307C77.2952 180.712 76.8385 180.95 76.5605 181.427C75.1706 184.008 73.9196 186.689 72.8076 189.469C71.7354 192.209 71.1992 193.917 71.1992 194.592C71.1992 195.307 71.4176 195.783 71.8545 196.021C72.3311 196.22 73.1452 196.379 74.2969 196.498C74.6543 196.498 74.9124 196.518 75.0713 196.558C75.945 196.637 76.3818 197.133 76.3818 198.047C76.3818 198.921 75.945 199.357 75.0713 199.357C74.9521 199.357 74.5947 199.318 73.999 199.238C73.443 199.199 72.6488 199.139 71.6162 199.06C70.6234 199.02 69.5312 199 68.3398 199ZM91.0361 177.555C91.3936 177.555 91.5723 177.396 91.5723 177.078C91.5723 176.76 90.778 174.775 89.1895 171.121C87.6406 167.467 86.6478 165.263 86.2109 164.509C86.0521 164.231 85.8337 164.092 85.5557 164.092C85.1982 164.092 84.821 164.449 84.4238 165.164C80.2539 173.027 78.1689 177.058 78.1689 177.257C78.1689 177.455 78.2881 177.555 78.5264 177.555H91.0361Z" fill="#F1E8E3"/>
</svg>
